<svg width="42" height="42" viewBox="0 0 42 42" fill="none" xmlns="http://www.w3.org/2000/svg">
<path d="M32.8846 19.2588H13.3371L21.8771 10.7188C22.5596 10.0363 22.5596 8.91627 21.8771 8.23377C21.5502 7.90608 21.1063 7.72192 20.6434 7.72192C20.1805 7.72192 19.7366 7.90608 19.4096 8.23377L7.87711 19.7663C7.19461 20.4488 7.19461 21.5513 7.87711 22.2338L19.4096 33.7663C20.0921 34.4488 21.1946 34.4488 21.8771 33.7663C22.5596 33.0838 22.5596 31.9813 21.8771 31.2988L13.3371 22.7588H32.8846C33.8471 22.7588 34.6346 21.9713 34.6346 21.0088C34.6346 20.0463 33.8471 19.2588 32.8846 19.2588Z" fill="#BBC8D4"/>
</svg>
