<svg width="36" height="36" viewBox="0 0 36 36" fill="none" xmlns="http://www.w3.org/2000/svg">
<path d="M7.81299 19.5001H24.568L17.248 26.8201C16.663 27.4051 16.663 28.3651 17.248 28.9501C17.833 29.5351 18.778 29.5351 19.363 28.9501L29.248 19.0651C29.833 18.4801 29.833 17.5351 29.248 16.9501L19.378 7.05006C19.0977 6.76918 18.7173 6.61133 18.3205 6.61133C17.9237 6.61133 17.5432 6.76918 17.263 7.05006C16.678 7.63506 16.678 8.58006 17.263 9.16506L24.568 16.5001H7.81299C6.98799 16.5001 6.31299 17.1751 6.31299 18.0001C6.31299 18.8251 6.98799 19.5001 7.81299 19.5001Z" fill="white" fill-opacity="0.3"/>
</svg>
