<svg width="64" height="64" viewBox="0 0 64 64" fill="none" xmlns="http://www.w3.org/2000/svg">
<g clip-path="url(#clip0_68419_113)">
<rect width="64" height="64" fill="white"/>
<rect width="64" height="64" fill="#213757"/>
<path d="M30.65 50.55C28.945 50.55 27.5792 50.2383 26.5525 49.615C25.5258 48.9917 24.7742 48.1942 24.2975 47.2225C23.8392 46.2325 23.61 45.1967 23.61 44.115V26.9H18.99L19.43 23.05H23.61V16.395L28.56 15.9V23.05H35.655V26.9H28.56V41.09C28.56 42.8133 28.6608 44.06 28.8625 44.83C29.0642 45.6 29.5592 46.0858 30.3475 46.2875C31.1542 46.4892 32.4467 46.59 34.225 46.59H35.49L35.105 50.55H30.65Z" fill="#F5F7FA"/>
<path d="M39.2803 50V44.17H45.2203V50H39.2803Z" fill="#0BBEF2"/>
</g>
<defs>
<clipPath id="clip0_68419_113">
<rect width="64" height="64" fill="white"/>
</clipPath>
</defs>
</svg>
